ffplay version N-81554-gf077ad6 Copyright (c) 2003-2016 the FFmpeg developers
  built with gcc 4.8 (Ubuntu 4.8.4-2ubuntu1~14.04.3)
  configuration: --prefix=/home/mininet/ffmpeg_build --pkg-config-flags=--static --extra-cflags=-I/home/mininet/ffmpeg_build/include --extra-ldflags=-L/home/mininet/ffmpeg_build/lib --bindir=/home/mininet/bin --enable-gpl --enable-libass --enable-libfdk-aac --enable-libfreetype --enable-libmp3lame --enable-libopus --enable-libtheora --enable-libvorbis --enable-libvpx --enable-libx264 --enable-libx265 --enable-nonfree
  libavutil      55. 29.100 / 55. 29.100
  libavcodec     57. 54.102 / 57. 54.102
  libavformat    57. 48.102 / 57. 48.102
  libavdevice    57.  0.102 / 57.  0.102
  libavfilter     6. 60.100 /  6. 60.100
  libswscale      4.  1.100 /  4.  1.100
  libswresample   2.  1.100 /  2.  1.100
  libpostproc    54.  0.100 / 54.  0.100
This is a modified version of software ffplay in order
to collect AppQoE metrics during video playing. 
These changes were made at: 
    Federal University of Rio Grande do Sul 
    Institute of Informatics. 
    nan    :  0.000 fd=   0 aq=    0KB vq=    0KB sq=    0B f=0/0       nan    :  0.000 fd=   0 aq=    0KB vq=    0KB sq=    0B f=0/0       nan    :  0.000 fd=   0 aq=    0KB vq=    0KB sq=    0B f=0/0       nan    :  0.000 fd=   0 aq=    0KB vq=    0KB sq=    0B f=0/0       nan    :  0.000 fd=   0 aq=    0KB vq=    0KB sq=    0B f=0/0       nan    :  0.000 fd=   0 aq=    0KB vq=    0KB sq=    0B f=0/0       nan    :  0.000 fd=   0 aq=    0KB vq=    0KB sq=    0B f=0/0       nan    :  0.000 fd=   0 aq=    0KB vq=    0KB sq=    0B f=0/0       nan    :  0.000 fd=   0 aq=    0KB vq=    0KB sq=    0B f=0/0       nan    :  0.000 fd=   0 aq=    0KB vq=    0KB sq=    0B f=0/0       nan    :  0.000 fd=   0 aq=    0KB vq=    0KB sq=    0B f=0/0       nan    :  0.000 fd=   0 aq=    0KB vq=    0KB sq=    0B f=0/0       nan    :  0.000 fd=   0 aq=    0KB vq=    0KB sq=    0B f=0/0       nan    :  0.000 fd=   0 aq=    0KB vq=    0KB sq=    0B f=0/0       nan    :  0.000 fd=   0 aq=    0KB vq=    0KB sq=    0B f=0/0       nan    :  0.000 fd=   0 aq=    0KB vq=    0KB sq=    0B f=0/0       nan    :  0.000 fd=   0 aq=    0KB vq=    0KB sq=    0B f=0/0       nan    :  0.000 fd=   0 aq=    0KB vq=    0KB sq=    0B f=0/0       nan    :  0.000 fd=   0 aq=    0KB vq=    0KB sq=    0B f=0/0       nan    :  0.000 fd=   0 aq=    0KB vq=    0KB sq=    0B f=0/0       nan    :  0.000 fd=   0 aq=    0KB vq=    0KB sq=    0B f=0/0       nan    :  0.000 fd=   0 aq=    0KB vq=    0KB sq=    0B f=0/0       nan    :  0.000 fd=   0 aq=    0KB vq=    0KB sq=    0B f=0/0       nan    :  0.000 fd=   0 aq=    0KB vq=    0KB sq=    0B f=0/0       nan    :  0.000 fd=   0 aq=    0KB vq=    0KB sq=    0B f=0/0       nan    :  0.000 fd=   0 aq=    0KB vq=    0KB sq=    0B f=0/0       nan    :  0.000 fd=   0 aq=    0KB vq=    0KB sq=    0B f=0/0       nan    :  0.000 fd=   0 aq=    0KB vq=    0KB sq=    0B f=0/0       nan    :  0.000 fd=   0 aq=    0KB vq=    0KB sq=    0B f=0/0       nan    :  0.000 fd=   0 aq=    0KB vq=    0KB sq=    0B f=0/0       nan    :  0.000 fd=   0 aq=    0KB vq=    0KB sq=    0B f=0/0       nan    :  0.000 fd=   0 aq=    0KB vq=    0KB sq=    0B f=0/0       nan    :  0.000 fd=   0 aq=    0KB vq=    0KB sq=    0B f=0/0       nan    :  0.000 fd=   0 aq=    0KB vq=    0KB sq=    0B f=0/0       nan    :  0.000 fd=   0 aq=    0KB vq=    0KB sq=    0B f=0/0       nan    :  0.000 fd=   0 aq=    0KB vq=    0KB sq=    0B f=0/0       nan    :  0.000 fd=   0 aq=    0KB vq=    0KB sq=    0B f=0/0       nan    :  0.000 fd=   0 aq=    0KB vq=    0KB sq=    0B f=0/0       nan    :  0.000 fd=   0 aq=    0KB vq=    0KB sq=    0B f=0/0       nan    :  0.000 fd=   0 aq=    0KB vq=    0KB sq=    0B f=0/0       nan    :  0.000 fd=   0 aq=    0KB vq=    0KB sq=    0B f=0/0       nan    :  0.000 fd=   0 aq=    0KB vq=    0KB sq=    0B f=0/0       nan    :  0.000 fd=   0 aq=    0KB vq=    0KB sq=    0B f=0/0       nan    :  0.000 fd=   0 aq=    0KB vq=    0KB sq=    0B f=0/0       nan    :  0.000 fd=   0 aq=    0KB vq=    0KB sq=    0B f=0/0       nan    :  0.000 fd=   0 aq=    0KB vq=    0KB sq=    0B f=0/0       nan    :  0.000 fd=   0 aq=    0KB vq=    0KB sq=    0B f=0/0       nan    :  0.000 fd=   0 aq=    0KB vq=    0KB sq=    0B f=0/0       nan    :  0.000 fd=   0 aq=    0KB vq=    0KB sq=    0B f=0/0       nan    :  0.000 fd=   0 aq=    0KB vq=    0KB sq=    0B f=0/0       nan    :  0.000 fd=   0 aq=    0KB vq=    0KB sq=    0B f=0/0       nan    :  0.000 fd=   0 aq=    0KB vq=    0KB sq=    0B f=0/0       nan    :  0.000 fd=   0 aq=    0KB vq=    0KB sq=    0B f=0/0       nan    :  0.000 fd=   0 aq=    0KB vq=    0KB sq=    0B f=0/0       nan    :  0.000 fd=   0 aq=    0KB vq=    0KB sq=    0B f=0/0       nan    :  0.000 fd=   0 aq=    0KB vq=    0KB sq=    0B f=0/0       nan    :  0.000 fd=   0 aq=    0KB vq=    0KB sq=    0B f=0/0       nan    :  0.000 fd=   0 aq=    0KB vq=    0KB sq=    0B f=0/0   Input #0, matroska,webm, from 'http://10.0.0.5:8005/h2642250':
  Metadata:
    encoder         : Lavf57.48.102
  Duration: N/A, start: 0.000000, bitrate: N/A
    Stream #0:0: Video: h264 (High), yuv420p, 960x540 [SAR 1:1 DAR 16:9], 1k fps, 29.97 tbr, 1k tbn, 59.94 tbc (default)
    Stream #0:1: Audio: vorbis, 44100 Hz, stereo, fltp (default)
    nan M-V:    nan fd=   0 aq=    0KB vq=  360KB sq=    0B f=0/0       nan M-V:    nan fd=   0 aq=    0KB vq=  306KB sq=    0B f=0/0       nan M-V:    nan fd=   0 aq=    0KB vq=  292KB sq=    0B f=0/0       nan M-V:    nan fd=   0 aq=    0KB vq=  292KB sq=    0B f=0/0       nan M-V:    nan fd=   0 aq=    0KB vq=  307KB sq=    0B f=0/0       nan M-V:    nan fd=   0 aq=    0KB vq=  499KB sq=    0B f=0/0      0.25 M-V: -0.000 fd=   0 aq=    0KB vq=  576KB sq=    0B f=0/0      0.84 M-V: -0.000 fd=   0 aq=    0KB vq=  834KB sq=    0B f=0/0   UFRGS: Video initialized! Init_time=1394.894897 
   1.22 M-V:  0.817 fd=  26 aq=    0KB vq=  711KB sq=    0B f=0/0   UFRGS: Video stalled! No frames in queue. 
   2.66 M-V:  0.817 fd=  26 aq=    0KB vq= 2123KB sq=    0B f=0/0   UFRGS: Recover from stall!. Stall_time=26.677000 Stall_count=1 
   3.00 M-V:  1.731 fd=  84 aq=    0KB vq= 2233KB sq=    0B f=0/0      4.40 M-V:  0.104 fd=  86 aq=    0KB vq= 4310KB sq=    0B f=0/0      6.30 M-V:  1.434 fd= 129 aq=    0KB vq= 8054KB sq=    0B f=0/0   XIO:  fatal IO error 11 (Resource temporarily unavailable) on X server "localhost:10.0"
      after 73 requests (73 known processed) with 0 events remaining.
